<svg width="28" height="24" viewBox="0 0 28 24" fill="none" xmlns="http://www.w3.org/2000/svg">
<path d="M23.4419 24H4.55796C2.91279 24 1.43946 23.198 0.61694 21.8548C-0.205578 20.5116 -0.205715 18.9075 0.61694 17.5642L10.059 2.14523C10.8815 0.802025 12.3549 0 14 0C15.6452 0 17.1185 0.802025 17.9411 2.14523L27.383 17.5642C28.2057 18.9075 28.2057 20.5114 27.383 21.8548C26.5604 23.1981 25.087 24 23.4419 24ZM14 1.23308C12.8277 1.23308 11.7779 1.80463 11.1916 2.76177L1.74961 18.1807C1.16344 19.138 1.16353 20.281 1.74961 21.2382C2.33568 22.1954 3.38563 22.7669 4.55801 22.7669H23.4418C24.6142 22.7669 25.664 22.1953 26.2502 21.2382C26.8364 20.281 26.8364 19.1379 26.2502 18.1807L16.8083 2.76177C16.2222 1.8045 15.1724 1.23308 14 1.23308ZM25.4146 18.2504L16.3104 3.38288C15.8282 2.59531 14.9645 2.12526 14 2.12526C13.0355 2.12526 12.1718 2.59544 11.6896 3.38288L2.5853 18.2504C2.10295 19.038 2.10308 19.9782 2.5853 20.7657C3.06752 21.5532 3.93122 22.0233 4.89579 22.0233H23.1042C24.0688 22.0233 24.9325 21.5532 25.4147 20.7657C25.897 19.9782 25.8968 19.0379 25.4146 18.2504ZM12.3512 8.02232C12.3512 7.16521 13.0908 6.46787 13.9999 6.46787C14.909 6.46787 15.6486 7.16521 15.6486 8.02232V13.0669C15.6486 13.9241 14.909 14.6214 13.9999 14.6214C13.0908 14.6214 12.3512 13.924 12.3512 13.0669V8.02232ZM13.9999 19.2066C13.0683 19.2066 12.3104 18.492 12.3104 17.6137C12.3104 16.7353 13.0683 16.0207 13.9999 16.0207C14.9315 16.0207 15.6894 16.7353 15.6894 17.6137C15.6894 18.492 14.9315 19.2066 13.9999 19.2066Z" fill="#ED1D24"/>
</svg>
