<svg width="9" height="15" viewBox="0 0 9 15" fill="none" xmlns="http://www.w3.org/2000/svg">
<path d="M8.40449 6.92496L5.03272 6.53903C5.01704 6.53723 5.00186 6.5309 4.98834 6.52051C4.97481 6.51012 4.96327 6.49594 4.95459 6.47901C4.9459 6.46209 4.94029 6.44286 4.93817 6.42275C4.93605 6.40265 4.93748 6.38219 4.94234 6.36289L6.37591 0.676661C6.38318 0.647828 6.3827 0.616683 6.37455 0.588242C6.3664 0.559802 6.35106 0.535723 6.33099 0.519885C6.31093 0.504047 6.2873 0.497372 6.26393 0.500936C6.24056 0.5045 6.2188 0.518094 6.20216 0.53953L0.530691 7.84504C0.516595 7.8632 0.506813 7.88615 0.502491 7.91122C0.49817 7.93629 0.49949 7.96242 0.506295 7.98656C0.5131 8.01069 0.525108 8.03183 0.54091 8.04748C0.556712 8.06313 0.575653 8.07265 0.595508 8.07492L3.96728 8.46086C3.98296 8.46265 3.99814 8.46898 4.01166 8.47937C4.02519 8.48976 4.03673 8.50395 4.04541 8.52087C4.0541 8.5378 4.05971 8.55703 4.06183 8.57713C4.06395 8.59723 4.06252 8.61769 4.05766 8.63699L2.62416 14.3233C2.61689 14.3522 2.61737 14.3833 2.62552 14.4118C2.63367 14.4402 2.64901 14.4643 2.66908 14.4801C2.68915 14.496 2.71277 14.5026 2.73614 14.4991C2.75952 14.4955 2.78127 14.4819 2.79792 14.4605L8.46931 7.15485C8.48341 7.13669 8.49319 7.11373 8.49751 7.08867C8.50183 7.0636 8.50051 7.03746 8.49371 7.01333C8.4869 6.9892 8.47489 6.96806 8.45909 6.95241C8.44329 6.93676 8.42435 6.92724 8.40449 6.92496Z" fill="#FFBC42"/>
</svg>
